<?xml version="1.0" encoding="UTF-8" standalone="no"?>
<!-- Created with Inkscape (http://www.inkscape.org/) -->

<svg
   width="80.559395mm"
   height="26.66646mm"
   viewBox="0 0 80.559397 26.66646"
   version="1.1"
   id="svg1"
   sodipodi:docname="logo.svg"
   inkscape:version="1.2.2 (b0a8486541, 2022-12-01)"
   xmlns:inkscape="http://www.inkscape.org/namespaces/inkscape"
   xmlns:sodipodi="http://sodipodi.sourceforge.net/DTD/sodipodi-0.dtd"
   xmlns="http://www.w3.org/2000/svg"
   xmlns:svg="http://www.w3.org/2000/svg">
  <sodipodi:namedview
     id="namedview2534"
     pagecolor="#ffffff"
     bordercolor="#000000"
     borderopacity="0.25"
     inkscape:showpageshadow="2"
     inkscape:pageopacity="0.0"
     inkscape:pagecheckerboard="0"
     inkscape:deskcolor="#d1d1d1"
     inkscape:document-units="mm"
     showgrid="false"
     inkscape:zoom="1.8192424"
     inkscape:cx="263.29642"
     inkscape:cy="117.90622"
     inkscape:window-width="1920"
     inkscape:window-height="964"
     inkscape:window-x="0"
     inkscape:window-y="44"
     inkscape:window-maximized="1"
     inkscape:current-layer="layer1" />
  <defs
     id="defs1" />
  <g
     id="layer1"
     transform="translate(-150.21657,-172.22722)">
    <g
       aria-label="&lt;LMI&gt;"
       transform="scale(0.92437487,1.0818122)"
       id="text21-9-0"
       style="font-size:31.1815px;line-height:1.25;fill:#673ab7;stroke-width:0.324809">
      <path
         d="m 178.83492,179.48515 -14.68649,-6.45457 v -1.55908 l 14.68649,-7.32765 v 2.43216 l -11.75543,5.55031 11.75543,4.92667 z"
         style="font-family:'HELLO DENVER DISPLAY BOLD';-inkscape-font-specification:'HELLO DENVER DISPLAY BOLD, '"
         id="path2653" />
      <path
         d="m 195.14286,178.45616 c 0,-0.31182 -0.15591,-0.46772 -0.46773,-0.46772 h -6.64166 c -0.31181,0 -0.46772,0.1559 -0.46772,0.46772 v 0.90426 c 0,0.31182 0.15591,0.46773 0.46772,0.46773 h 4.86432 c 0.31181,0 0.46772,0.1559 0.46772,0.46772 v 0.56127 c 0,0.31181 -0.15591,0.46772 -0.46772,0.46772 h -5.79976 c -0.31182,0 -0.46772,-0.15591 -0.46772,-0.46772 v -19.11426 c 0,-0.31182 -0.15591,-0.46773 -0.46773,-0.46773 h -4.49013 c -0.31182,0 -0.46772,0.15591 -0.46772,0.46773 v 20.8916 c 0,0.31182 0.1559,0.46772 0.46772,0.46772 h 0.8419 c 0.31181,0 0.46772,-0.1559 0.46772,-0.46772 v -19.11426 c 0,-0.31181 0.15591,-0.46772 0.46772,-0.46772 h 0.93545 c 0.31181,0 0.46772,0.15591 0.46772,0.46772 v 19.11426 c 0,0.31182 0.15591,0.46772 0.46772,0.46772 h 9.35445 c 0.31182,0 0.46773,-0.1559 0.46773,-0.46772 z"
         style="font-family:'HELLO DENVER DISPLAY BOLD';-inkscape-font-specification:'HELLO DENVER DISPLAY BOLD, '"
         id="path2655" />
      <path
         d="m 210.67124,161.27515 c -0.24946,0 -0.43655,0.0935 -0.53009,0.343 l -5.51913,10.91353 c -0.1559,0.34299 -0.46772,0.34299 -0.62363,0 l -3.30523,-6.64166 c -0.21827,-0.43655 -0.56127,-0.343 -0.56127,0.12472 v 14.81121 c 0,0.31182 -0.15591,0.46773 -0.46772,0.46773 h -0.686 c -0.31181,0 -0.46772,-0.15591 -0.46772,-0.46773 V 163.5514 c 0,-0.31181 0.15591,-0.46772 0.46772,-0.46772 h 1.71499 c 0.24945,0 0.43654,0.0936 0.53008,0.343 l 3.18051,6.32984 c 0.15591,0.343 0.46773,0.343 0.62363,0 l 0.53009,-1.02899 c 0.0935,-0.21827 0.0935,-0.40536 0,-0.62363 l -3.24288,-6.48575 c -0.0935,-0.24945 -0.28063,-0.343 -0.53008,-0.343 h -4.61486 c -0.31182,0 -0.46773,0.15591 -0.46773,0.46773 v 20.8916 c 0,0.31182 0.15591,0.46772 0.46773,0.46772 h 4.30304 c 0.31182,0 0.46773,-0.1559 0.46773,-0.46772 v -9.07382 c 0,-0.46772 0.34299,-0.56126 0.56126,-0.12472 l 1.49671,2.99342 c 0.15591,0.343 0.46773,0.343 0.62363,0 l 6.51694,-13.00268 c 0.0935,-0.24945 0.28063,-0.343 0.53008,-0.343 h 1.71499 c 0.31181,0 0.46772,0.15591 0.46772,0.46772 v 17.27455 c 0,0.31182 -0.15591,0.46773 -0.46772,0.46773 h -0.686 c -0.31181,0 -0.46772,-0.15591 -0.46772,-0.46773 V 166.0771 c 0,-0.46772 -0.343,-0.56126 -0.56127,-0.12472 l -6.3922,12.75323 c -0.0935,0.21827 -0.0935,0.40536 0,0.62363 l 0.46772,0.93545 c 0.15591,0.37417 0.46772,0.37417 0.62363,0.0312 l 3.49233,-6.92229 c 0.21827,-0.40536 0.56126,-0.343 0.56126,0.1559 v 9.105 c 0,0.31182 0.15591,0.46772 0.46773,0.46772 h 4.30304 c 0.31182,0 0.46773,-0.1559 0.46773,-0.46772 v -20.8916 c 0,-0.31182 -0.15591,-0.46773 -0.46773,-0.46773 z"
         style="font-family:'HELLO DENVER DISPLAY BOLD';-inkscape-font-specification:'HELLO DENVER DISPLAY BOLD, '"
         id="path2657" />
      <path
         d="m 218.71609,161.27515 c -0.28064,0 -0.46773,0.18709 -0.46773,0.46773 v 4.33422 c 0,0.28064 0.18709,0.46773 0.46773,0.46773 h 1.21608 c 0.28063,0 0.46772,-0.18709 0.46772,-0.46773 v -0.93544 c 0,-0.28063 -0.0935,-0.46772 -0.18709,-0.46772 -0.0935,0 -0.18709,-0.18709 -0.18709,-0.46773 v -0.68599 c 0,-0.28063 0.18709,-0.46772 0.46772,-0.46772 h 7.10938 c 0.28064,0 0.46773,0.18709 0.46773,0.46772 v 0.68599 c 0,0.28064 -0.18709,0.46773 -0.46773,0.46773 h -5.79975 c -0.28064,0 -0.46773,0.18709 -0.46773,0.46772 v 12.22315 c 0,0.28063 -0.18709,0.46772 -0.46772,0.46772 h -2.30743 c -0.28063,0 -0.46772,0.18709 -0.46772,0.46772 v 4.33423 c 0,0.28063 0.18709,0.46772 0.46772,0.46772 h 10.97589 c 0.28063,0 0.46772,-0.18709 0.46772,-0.46772 v -4.33423 c 0,-0.28063 -0.18709,-0.46772 -0.46772,-0.46772 h -2.30743 c -0.28064,0 -0.46773,-0.18709 -0.46773,-0.46772 v -9.41682 c 0,-0.28063 -0.18709,-0.46772 -0.46772,-0.46772 h -0.8419 c -0.28063,0 -0.46772,0.18709 -0.46772,0.46772 v 11.28771 c 0,0.28063 0.18709,0.46772 0.46772,0.46772 h 2.30743 c 0.28064,0 0.46772,0.18709 0.46772,0.46772 v 0.686 c 0,0.28063 -0.18708,0.46772 -0.46772,0.46772 h -7.42119 c -0.28064,0 -0.46773,-0.18709 -0.46773,-0.46772 v -0.686 c 0,-0.28063 0.18709,-0.46772 0.46773,-0.46772 h 2.30743 c 0.28063,0 0.46772,-0.18709 0.46772,-0.46772 v -12.22315 c 0,-0.28063 0.18709,-0.46772 0.46772,-0.46772 h 5.79976 c 0.28063,0 0.46772,-0.18709 0.46772,-0.46773 v -4.33422 c 0,-0.28064 -0.18709,-0.46773 -0.46772,-0.46773 z"
         style="font-family:'HELLO DENVER DISPLAY BOLD';-inkscape-font-specification:'HELLO DENVER DISPLAY BOLD, '"
         id="path2659" />
      <path
         d="m 232.34238,177.05299 11.75542,-4.89549 -11.75542,-5.58149 v -2.43216 l 14.68648,7.32765 v 1.55908 l -14.68648,6.45457 z"
         style="font-family:'HELLO DENVER DISPLAY BOLD';-inkscape-font-specification:'HELLO DENVER DISPLAY BOLD, '"
         id="path2661" />
    </g>
  </g>
</svg>
